<svg xmlns="http://www.w3.org/2000/svg">
    <symbol viewBox="0 0 25 25" id="tw">
        <g>
            <path
                d="M21.9999 7.18037C21.302 7.48654 20.5582 7.68948 19.7828 7.78802C20.5805 7.31175 21.1893 6.56333 21.4756 5.66123C20.7318 6.10465 19.9107 6.41787 19.0356 6.59265C18.3294 5.84071 17.3229 5.375 16.2249 5.375C14.0946 5.375 12.3795 7.10412 12.3795 9.22387C12.3795 9.52886 12.4053 9.82213 12.4687 10.1013C9.26971 9.94531 6.43908 8.4121 4.53752 6.0765C4.20554 6.65248 4.01081 7.31175 4.01081 8.02146C4.01081 9.35408 4.69706 10.5354 5.71998 11.2193C5.10177 11.2075 4.49529 11.0281 3.98148 10.7453C3.98148 10.7571 3.98148 10.7723 3.98148 10.7876C3.98148 12.6575 5.31527 14.2106 7.06433 14.5684C6.75112 14.654 6.40975 14.6951 6.05548 14.6951C5.80914 14.6951 5.56044 14.681 5.327 14.6294C5.82556 16.1532 7.24029 17.2735 8.92248 17.3099C7.61333 18.334 5.95108 18.951 4.15158 18.951C3.83602 18.951 3.53337 18.9369 3.23071 18.8982C4.93519 19.9974 6.95523 20.625 9.13364 20.625C16.2143 20.625 20.0855 14.7596 20.0855 9.6755C20.0855 9.5054 20.0796 9.34117 20.0714 9.17811C20.8351 8.63615 21.4768 7.95929 21.9999 7.18037Z" />
        </g>
    </symbol>
    <symbol viewBox="0 0 25 25" id="inst">
        <g>
            <path
                d="M16.375 4H9.625C6.51888 4 4 6.51888 4 9.625V16.375C4 19.4811 6.51888 22 9.625 22H16.375C19.4811 22 22 19.4811 22 16.375V9.625C22 6.51888 19.4811 4 16.375 4ZM20.3125 16.375C20.3125 18.5463 18.5463 20.3125 16.375 20.3125H9.625C7.45375 20.3125 5.6875 18.5463 5.6875 16.375V9.625C5.6875 7.45375 7.45375 5.6875 9.625 5.6875H16.375C18.5463 5.6875 20.3125 7.45375 20.3125 9.625V16.375Z" />
            <path
                d="M13 8.5C10.5149 8.5 8.5 10.5149 8.5 13C8.5 15.4851 10.5149 17.5 13 17.5C15.4851 17.5 17.5 15.4851 17.5 13C17.5 10.5149 15.4851 8.5 13 8.5ZM13 15.8125C11.4497 15.8125 10.1875 14.5503 10.1875 13C10.1875 11.4486 11.4497 10.1875 13 10.1875C14.5503 10.1875 15.8125 11.4486 15.8125 13C15.8125 14.5503 14.5503 15.8125 13 15.8125Z" />
            <path
                d="M17.8373 8.76212C18.1685 8.76212 18.4369 8.49365 18.4369 8.16249C18.4369 7.83133 18.1685 7.56287 17.8373 7.56287C17.5061 7.56287 17.2377 7.83133 17.2377 8.16249C17.2377 8.49365 17.5061 8.76212 17.8373 8.76212Z" />
        </g>
    </symbol>
    <symbol viewBox="0 0 25 25" id="">
        <g>
            <path
                d="M24.3179 18.4871C24.252 18.3767 23.844 17.4902 21.8809 15.6683C19.8258 13.7604 20.1019 14.0702 22.5772 10.7713C24.0848 8.76224 24.6875 7.53531 24.4989 7.01081C24.3194 6.51084 23.2106 6.64273 23.2106 6.64273L19.5237 6.6642C19.5237 6.6642 19.2507 6.62739 19.0468 6.74855C18.8489 6.86818 18.7216 7.14423 18.7216 7.14423C18.7216 7.14423 18.1373 8.69936 17.3582 10.0214C15.7157 12.8111 15.0577 12.9583 14.7893 12.785C14.1651 12.3817 14.3216 11.1624 14.3216 10.2974C14.3216 7.59359 14.7311 6.46636 13.5225 6.17497C13.1207 6.07835 12.8263 6.01393 11.8003 6.0032C10.4844 5.98939 9.36942 6.0078 8.73909 6.31606C8.31887 6.52157 7.99527 6.98013 8.19311 7.00621C8.43696 7.03841 8.98907 7.15497 9.282 7.55372C9.66081 8.06749 9.64701 9.22386 9.64701 9.22386C9.64701 9.22386 9.86479 12.4062 9.13937 12.8019C8.64093 13.0733 7.95846 12.5197 6.49382 9.98762C5.74387 8.69169 5.17641 7.25772 5.17641 7.25772C5.17641 7.25772 5.06753 6.99087 4.87275 6.84824C4.63657 6.67494 4.3053 6.61973 4.3053 6.61973L0.799375 6.6412C0.799375 6.6412 0.273332 6.65653 0.0800922 6.88505C-0.0916767 7.08902 0.0662894 7.50924 0.0662894 7.50924C0.0662894 7.50924 2.81153 13.9306 5.9187 17.1682C8.76976 20.1358 12.0058 19.941 12.0058 19.941H13.4719C13.4719 19.941 13.9152 19.8919 14.1406 19.6481C14.3492 19.4242 14.3415 19.004 14.3415 19.004C14.3415 19.004 14.3124 17.0363 15.2264 16.7464C16.1267 16.4612 17.2831 18.6482 18.5084 19.4901C19.4348 20.1266 20.1387 19.987 20.1387 19.987L23.4161 19.941C23.4161 19.941 25.1307 19.8352 24.3179 18.4871Z" />

        </g>
    </symbol>
    <symbol viewBox="0 0 50 50" id="vk">
        <g>
                <circle cx="25" cy="25" r="23.5"  stroke="url(#paint0_linear)" stroke-width="3" />
                <path
                    d="M36.3179 31.4871C36.252 31.3767 35.844 30.4902 33.8809 28.6683C31.8258 26.7604 32.1019 27.0702 34.5772 23.7713C36.0848 21.7622 36.6875 20.5353 36.4989 20.0108C36.3194 19.5108 35.2106 19.6427 35.2106 19.6427L31.5237 19.6642C31.5237 19.6642 31.2507 19.6274 31.0468 19.7486C30.8489 19.8682 30.7216 20.1442 30.7216 20.1442C30.7216 20.1442 30.1373 21.6994 29.3582 23.0214C27.7157 25.8111 27.0577 25.9583 26.7893 25.785C26.1651 25.3817 26.3216 24.1624 26.3216 23.2974C26.3216 20.5936 26.7311 19.4664 25.5225 19.175C25.1207 19.0783 24.8263 19.0139 23.8003 19.0032C22.4844 18.9894 21.3694 19.0078 20.7391 19.3161C20.3189 19.5216 19.9953 19.9801 20.1931 20.0062C20.437 20.0384 20.9891 20.155 21.282 20.5537C21.6608 21.0675 21.647 22.2239 21.647 22.2239C21.647 22.2239 21.8648 25.4062 21.1394 25.8019C20.6409 26.0733 19.9585 25.5197 18.4938 22.9876C17.7439 21.6917 17.1764 20.2577 17.1764 20.2577C17.1764 20.2577 17.0675 19.9909 16.8728 19.8482C16.6366 19.6749 16.3053 19.6197 16.3053 19.6197L12.7994 19.6412C12.7994 19.6412 12.2733 19.6565 12.0801 19.885C11.9083 20.089 12.0663 20.5092 12.0663 20.5092C12.0663 20.5092 14.8115 26.9306 17.9187 30.1682C20.7698 33.1358 24.0058 32.941 24.0058 32.941H25.4719C25.4719 32.941 25.9152 32.8919 26.1406 32.6481C26.3492 32.4242 26.3415 32.004 26.3415 32.004C26.3415 32.004 26.3124 30.0363 27.2264 29.7464C28.1267 29.4612 29.2831 31.6482 30.5084 32.4901C31.4348 33.1266 32.1387 32.987 32.1387 32.987L35.4161 32.941C35.4161 32.941 37.1307 32.8352 36.3179 31.4871Z"
                    fill="#066035" />
                <defs>
                    <linearGradient id="paint0_linear" x1="1.85185" y1="-7.37268e-06" x2="-4.55776" y2="49.2257"
                        gradientUnits="userSpaceOnUse">
                        <stop stop-color="#066035" />
                        <stop offset="1" stop-color="#074627" />
                    </linearGradient>
                </defs>
        </g>
    </symbol>
</svg>