<svg width="17" height="13" viewBox="0 0 17 13" fill="none" xmlns="http://www.w3.org/2000/svg">
<path d="M0.508976 11.28L0.428976 12.128L1.85298 12.016L3.90098 12L5.82098 12.064L6.90898 12.128L6.87698 11.376L6.90898 10.608L5.75698 10.688C5.10098 10.736 4.49298 10.752 3.94898 10.752L3.02098 10.736V6.672L3.98098 6.656C4.66898 6.672 5.26098 6.704 5.78898 6.72L6.79698 6.8L6.74898 6.048L6.79698 5.28L5.83698 5.344C5.24498 5.392 4.63698 5.408 4.01298 5.408L3.02098 5.392V1.712L3.91698 1.728L5.90098 1.792L6.90898 1.856L6.87698 1.072L6.90898 0.335997L5.94898 0.415997C5.45298 0.447996 4.63698 0.463997 3.50098 0.463997C2.73298 0.463997 2.18898 0.447996 1.85298 0.431996L0.428976 0.335997L0.508976 1.2L0.556976 2.656V4.464L0.572976 7.536L0.556976 9.664C0.556976 10.288 0.540976 10.832 0.508976 11.28ZM9.6684 4.016L8.3884 3.968L8.4684 4.704C8.4844 5.024 8.5004 5.488 8.5164 6.08L8.5324 8.08L8.5164 9.696L8.4844 11.232L8.3884 12.048L9.6844 12L10.8524 12.048L10.7564 11.312C10.7244 10.896 10.7084 10.368 10.7084 9.744V8.336L10.7564 6.976C10.8204 5.808 11.3324 5.216 12.2604 5.2C13.1404 5.2 13.6204 5.776 13.6684 6.944L13.7004 8.384L13.6844 9.776L13.6044 11.248L13.5724 12.048L14.7564 12L16.0204 12.048L15.9244 11.344C15.8924 11.024 15.8764 10.56 15.8764 9.92V8.448L15.8924 6.704C15.8924 6.176 15.8284 5.712 15.6684 5.312C15.5564 5.024 15.3964 4.768 15.1244 4.512C14.6284 4.016 14.0044 3.776 13.2364 3.776C12.4364 3.792 11.7644 4.048 11.1884 4.56L10.6444 5.088L10.6604 4.608C10.6764 4.464 10.7084 4.256 10.7724 3.968L9.6684 4.016Z" fill="#393838"/>
</svg>
