<svg width="186" height="6" viewBox="0 0 186 6" fill="none" xmlns="http://www.w3.org/2000/svg">
<path d="M0 5.5939L0.0169983 5.24191L0.0379944 4.50192L0.0659943 3.40991V1.83792L0.0529938 1.13791L0.0379944 0.500916L0 0.0919189L0.580994 0.123932L1.702 0.154907L2.697 0.14093L3.281 0.0919189L3.257 0.398926L3.281 0.722931L2.723 0.691925C2.419 0.675903 2.084 0.670929 1.686 0.664917H1.29099V1.13791V1.91791V2.50391L1.645 2.51392C1.967 2.51392 2.336 2.50391 2.743 2.47192L3.186 2.44391L3.171 2.74991L3.186 3.07993L2.743 3.04892C2.334 3.02792 1.95499 3.00992 1.63499 3.00992H1.29099V3.45993L1.306 4.5379L1.324 5.2579L1.354 5.5939L0.710998 5.58191L0 5.5939Z" fill="#E5CE90"/>
<path d="M5.8828 4.38782L5.89079 2.83682L5.8828 1.45584C5.8828 1.04382 5.8828 0.722839 5.85279 0.466827L5.82379 0.131836L6.5118 0.155823L7.1898 0.131836L7.15079 0.466827C7.13979 0.648834 7.12979 0.98584 7.12979 1.47385L7.11379 2.85382V4.42184C7.11779 4.74384 7.12979 5.01984 7.13979 5.25684L7.1898 5.59384L6.5118 5.58182L5.82379 5.59384L5.85279 5.19785L5.8828 4.38782Z" fill="#E5CE90"/>
<path d="M10.7974 4.12607L10.8244 2.68808L10.8134 1.42108L10.7634 0.634094L10.7434 0.13208L11.1654 0.15509L11.5734 0.13208L11.9734 0.610077C12.1434 0.818085 12.4484 1.13809 12.8854 1.58609L13.8444 2.59109C14.1944 2.95407 14.5154 3.27209 14.7844 3.55109L15.2184 3.9491L15.1954 3.26508L15.1914 2.39407L15.1514 1.41208L15.1284 0.541077L15.1164 0.13208L15.4614 0.15509L15.8244 0.13208V0.467072L15.7944 1.2981L15.7694 2.88208L15.7624 4.37009V5.18808L15.7734 5.59409L15.4084 5.58209L15.0014 5.59409L14.6684 5.19107C14.4604 4.94308 14.2034 4.66208 13.9134 4.35709C13.6344 4.04608 13.2804 3.69009 12.8414 3.24707L11.8574 2.24307L11.4254 1.79608L11.4114 2.1131L11.3994 2.95407L11.4254 4.1131C11.4254 4.61807 11.4254 5.00308 11.4414 5.27408L11.4644 5.59409L11.1184 5.58209L10.7434 5.59409L10.7634 5.27408C10.7634 4.98608 10.7784 4.59708 10.7974 4.12607Z" fill="#E5CE90"/>
<path d="M19.2852 4.52264L19.2922 3.51965L19.2852 2.06967V1.22067L19.2672 0.538666L19.2212 0.128662L19.9402 0.17865C20.0942 0.17865 20.3702 0.193665 20.7562 0.193665C21.3252 0.193665 21.7242 0.17865 21.9822 0.168671L22.4552 0.128662L22.4392 0.477661L22.4552 0.844666L21.9472 0.815674L20.9592 0.789673L20.5142 0.78067V2.50766L21.0062 2.51465C21.3252 2.51465 21.6292 2.50766 21.9142 2.48666L22.4032 2.45166L22.3812 2.80966L22.4032 3.17566L21.8902 3.13766C21.6372 3.11966 21.3352 3.10965 21.0032 3.10165L20.5142 3.10965V5.02264L20.9682 5.03564C21.2532 5.03564 21.5492 5.02264 21.8872 5.00165L22.4552 4.96066L22.4392 5.32266L22.4552 5.68066L21.9112 5.65067L20.9532 5.61966H19.9402L19.2212 5.68066L19.2672 5.27966C19.2782 5.06766 19.2852 4.81366 19.2852 4.52264Z" fill="#E5CE90"/>
<path d="M25.5718 4.41031V1.23532C25.5718 0.948334 25.5718 0.722321 25.5528 0.51532L25.5088 0.132324L26.2028 0.155334L26.8688 0.132324L26.8318 0.51532C26.8148 0.738312 26.8028 0.985321 26.7968 1.25333V5.07932L27.4988 5.06934C27.8588 5.06934 28.1368 5.06534 28.3378 5.04333L28.7698 5.01932L28.7498 5.33133L28.7698 5.64532L28.1658 5.59433C27.9148 5.58234 27.4798 5.58234 26.8938 5.58234H26.1298L25.5088 5.64532L25.5448 5.26733C25.5578 5.02432 25.5718 4.74231 25.5718 4.41031Z" fill="#E5CE90"/>
<path d="M32.585 0.131836L32.735 0.515839C32.824 0.738861 32.936 0.98584 33.081 1.25284C33.175 1.49185 33.321 1.77884 33.478 2.07285L33.812 2.67984L34.146 2.06686C34.304 1.73886 34.434 1.46985 34.553 1.21484C34.634 1.03186 34.733 0.789856 34.842 0.515839L34.995 0.131836L35.441 0.154846L35.892 0.131836L35.636 0.53186C35.561 0.624847 35.441 0.86084 35.234 1.23584L34.474 2.63284L34.146 3.33084L34.09 3.74286C34.08 3.87384 34.068 4.06485 34.068 4.32285C34.068 4.68185 34.08 4.95386 34.09 5.13385L34.146 5.59384L33.478 5.58185L32.787 5.59384L32.824 5.12384L32.849 4.45584V3.33084L32.479 2.68787L31.709 1.27786C31.577 1.07184 31.425 0.82486 31.241 0.546844L30.972 0.131836L31.841 0.154846L32.585 0.131836Z" fill="#E5CE90"/>
<path d="M42.9546 4.34C43.1445 4.888 43.5106 5.16101 44.0406 5.15402C44.3535 5.15402 44.5936 5.095 44.7466 4.96802C44.9445 4.80502 45.0565 4.595 45.0565 4.35202C45.0565 4.09 44.8876 3.87402 44.5625 3.67001C44.3885 3.565 44.1916 3.46301 43.9935 3.37402L43.4666 3.10202C43.0526 2.88 42.7836 2.599 42.6586 2.26102C42.6035 2.08902 42.5676 1.897 42.5676 1.68402C42.5676 1.41202 42.6185 1.17801 42.7036 0.981018C42.8015 0.753998 42.9546 0.572998 43.1705 0.411011C43.5146 0.14801 43.9465 0.0220031 44.4765 0C44.8876 0 45.2505 0.0830078 45.5956 0.249023L45.8026 0.362L45.6546 0.731018C45.6236 0.825012 45.5956 0.969025 45.5446 1.16202H45.3866C45.2746 0.911011 45.1566 0.740997 45.0266 0.673004C44.8555 0.561005 44.6436 0.509003 44.4335 0.509003C44.1826 0.509003 43.9866 0.561005 43.8275 0.689026C43.6586 0.825012 43.5565 0.994019 43.5656 1.216C43.5656 1.49902 43.7146 1.707 44.0005 1.88702C44.1826 1.996 44.4066 2.11102 44.6555 2.23602C45.1996 2.492 45.5596 2.72101 45.7446 2.936C45.8405 3.06403 45.9185 3.21002 45.9776 3.384C46.0356 3.552 46.0576 3.70602 46.0576 3.88202C46.0576 4.41302 45.8405 4.84601 45.4276 5.198C45.0495 5.50601 44.5746 5.66202 43.9736 5.66202C43.7845 5.66202 43.5656 5.63202 43.3616 5.608C43.1705 5.561 42.9846 5.53101 42.8306 5.45001L42.5085 5.31702C42.5876 5.09601 42.6496 4.94202 42.6665 4.84C42.7036 4.71902 42.7305 4.56 42.7486 4.34H42.9546Z" fill="#E5CE90"/>
<path d="M49.0059 4.48453L49.0189 3.48355L49.0059 2.03253V1.18454L48.9809 0.501556L48.9389 0.0915527L49.6579 0.140533C49.8269 0.140533 50.0939 0.155548 50.4779 0.155548C51.0469 0.155548 51.4529 0.140533 51.6989 0.131531L52.1829 0.0915527L52.1689 0.439545L52.1829 0.808533L51.6829 0.778534L50.6859 0.752533L50.2409 0.744537V2.47156L50.7359 2.47754C51.0469 2.47754 51.3439 2.47156 51.6409 2.44955L52.1239 2.41354L52.1049 2.77353L52.1239 3.13956L51.6209 3.09854C51.3549 3.08255 51.0579 3.07254 50.7139 3.06454L50.2409 3.07254V4.98654L50.6959 5.00055C50.9679 5.00055 51.2779 4.98654 51.6019 4.96353L52.1829 4.92453L52.1689 5.28653L52.1829 5.64554L51.6299 5.61255L50.6849 5.58255H49.6579L48.9389 5.64554L48.9809 5.24255C48.9959 5.03156 49.0059 4.77655 49.0059 4.48453Z" fill="#E5CE90"/>
<path d="M55.1748 4.41031V1.23532C55.1748 0.948334 55.1548 0.722321 55.1538 0.51532L55.0948 0.132324L55.7988 0.155334L56.4598 0.132324L56.4218 0.51532C56.4048 0.738312 56.4028 0.985321 56.3908 1.25333V5.07932L57.0938 5.06934C57.4528 5.06934 57.7108 5.06534 57.9328 5.04333L58.3638 5.01932L58.3418 5.33133L58.3638 5.64532L57.7658 5.59433C57.5078 5.58234 57.0768 5.58234 56.4778 5.58234H55.7218L55.0948 5.64532L55.1258 5.26733C55.1538 5.02432 55.1548 4.74231 55.1748 4.41031Z" fill="#E5CE90"/>
<path d="M61.2725 4.48453L61.2775 3.48355L61.2725 2.03253V1.18454L61.2445 0.501556L61.2125 0.0915527L61.9205 0.140533C62.0855 0.140533 62.3585 0.155548 62.7365 0.155548C63.3025 0.155548 63.7155 0.140533 63.9625 0.131531L64.4415 0.0915527L64.4215 0.439545L64.4415 0.808533L63.9375 0.778534L62.9495 0.752533L62.4955 0.744537V2.47156L62.9915 2.47754C63.3025 2.47754 63.6105 2.47156 63.9095 2.44955L64.3835 2.41354L64.3635 2.77353L64.3835 3.13956L63.8835 3.09854C63.6165 3.08255 63.3255 3.07254 62.9785 3.06454L62.4955 3.07254V4.98654L62.9635 5.00055C63.2395 5.00055 63.5425 4.98654 63.8695 4.96353L64.4415 4.92453L64.4215 5.28653L64.4415 5.64554L63.8965 5.61255L62.9495 5.58255H61.9205L61.2125 5.64554L61.2445 5.24255C61.2725 5.03156 61.2725 4.77655 61.2725 4.48453Z" fill="#E5CE90"/>
<path d="M71.479 0.948364C71.185 0.680389 70.81 0.547394 70.345 0.547394C69.741 0.547394 69.259 0.790375 68.885 1.27737C68.59 1.69339 68.435 2.21136 68.435 2.84039C68.435 3.27539 68.519 3.69037 68.663 4.06738C68.807 4.42239 69.032 4.69537 69.345 4.89038C69.67 5.09637 70.019 5.18738 70.404 5.19138C70.889 5.19138 71.3 5.06537 71.683 4.78036L71.927 4.59637L72.044 4.64838L71.927 5.02438L71.861 5.34439L71.653 5.43939C71.26 5.59637 70.766 5.69138 70.204 5.69836C69.677 5.69836 69.195 5.59637 68.743 5.43939C68.403 5.30838 68.092 5.12439 67.819 4.87637C67.579 4.63339 67.397 4.38837 67.269 4.11337C67.13 3.77737 67.06 3.39236 67.06 2.95438C67.06 2.01736 67.376 1.29837 68.004 0.790375C68.625 0.293365 69.401 0.036377 70.374 0.036377C70.869 0.036377 71.325 0.120392 71.742 0.255371L72.062 0.368378L71.944 0.763367L71.831 1.25537H71.766C71.657 1.13339 71.56 1.03137 71.479 0.948364Z" fill="#E5CE90"/>
<path d="M74.5552 0.0919189L75.2172 0.119934C75.8092 0.14093 76.3022 0.154938 76.7012 0.154938C77.1282 0.154938 77.6162 0.14093 78.1872 0.119934L78.8362 0.0919189L78.8152 0.406921L78.8362 0.722931L78.3042 0.691925L77.6452 0.664948H77.3062V2.48795L77.3192 4.02493L77.3412 5.06894L77.3842 5.59393L76.7012 5.58194L76.0182 5.59393L76.0402 5.06894L76.0732 4.02493L76.0892 2.48795L76.0952 0.993927V0.664948H75.7572L75.0862 0.691925L74.5552 0.722931L74.5772 0.406921L74.5552 0.0919189Z" fill="#E5CE90"/>
<path d="M81.6206 4.48453V3.48355V2.03253V1.18454L81.5866 0.501556L81.5536 0.0915527L82.2606 0.140533C82.4256 0.140533 82.7066 0.155548 83.0786 0.155548C83.6456 0.155548 84.0466 0.140533 84.2986 0.131531L84.7846 0.0915527L84.7626 0.439545L84.7846 0.808533L84.2746 0.778534L83.2896 0.752533L82.8446 0.744537V2.47156L83.3356 2.47754C83.6456 2.47754 83.9556 2.47156 84.2496 2.44955L84.7306 2.41354L84.7026 2.77353L84.7306 3.13956L84.2186 3.09854C83.9556 3.08255 83.6666 3.07254 83.3196 3.06454L82.8446 3.07254V4.98654L83.3006 5.00055C83.5786 5.00055 83.8706 4.98654 84.2036 4.96353L84.7846 4.92453L84.7626 5.28653L84.7846 5.64554L84.2406 5.61255L83.2776 5.58255H82.2606L81.5536 5.64554L81.5866 5.24255C81.6016 5.03156 81.6206 4.77655 81.6206 4.48453Z" fill="#E5CE90"/>
<path d="M89.6026 5.06555L90.0476 5.07956C90.7186 5.07956 91.2356 4.84756 91.5766 4.38757C91.8766 3.98257 92.0296 3.44757 92.0296 2.77356C92.0296 2.27756 91.9366 1.85556 91.7436 1.50757C91.5076 1.06656 91.1576 0.808563 90.6946 0.722565C90.4826 0.679565 90.1946 0.670563 89.8306 0.656555L89.2996 0.679565L89.2876 1.27756L89.2666 2.87555L89.2816 4.36356L89.2996 5.04257L89.6026 5.06555ZM88.0366 4.39655L88.0496 2.83655L88.0366 1.25455C88.0366 0.914551 88.0236 0.675568 88.0116 0.524567L87.9806 0.0915527L88.3076 0.140564C88.4216 0.140564 88.5616 0.155548 88.7626 0.155548C89.0846 0.155548 89.4106 0.140564 89.7316 0.131561L90.5726 0.0915527C91.0596 0.0915527 91.4646 0.140564 91.7876 0.244568C92.3016 0.39856 92.7036 0.738556 93.0256 1.25455C93.2716 1.70056 93.3986 2.21057 93.4126 2.76355C93.3986 3.62057 93.1046 4.32355 92.5256 4.87555C91.9816 5.39456 91.2356 5.64557 90.2796 5.64557C90.0476 5.64557 89.7646 5.63358 89.4526 5.61255L88.7396 5.58157C88.5296 5.58157 88.3936 5.58157 88.2896 5.59357L87.9806 5.64557L88.0116 5.23355C88.0236 5.06555 88.0236 4.78055 88.0366 4.39655Z" fill="#E5CE90"/>
<path d="M100.982 4.34C101.166 4.888 101.542 5.16101 102.071 5.15402C102.367 5.15402 102.61 5.095 102.764 4.966C102.972 4.80301 103.088 4.59702 103.088 4.35202C103.088 4.08902 102.913 3.87402 102.59 3.67001C102.41 3.565 102.223 3.46301 102.018 3.37402L101.494 3.10202C101.082 2.88 100.808 2.59702 100.681 2.26102C100.63 2.08902 100.595 1.897 100.595 1.68402C100.595 1.41202 100.635 1.17801 100.727 0.981018C100.827 0.753998 100.982 0.572998 101.194 0.410004C101.542 0.147003 101.981 0.0220032 102.501 0C102.905 0 103.27 0.0830078 103.614 0.249023L103.828 0.362L103.676 0.731018C103.652 0.825012 103.614 0.969025 103.564 1.16202H103.399C103.301 0.911011 103.18 0.742004 103.051 0.671021C102.873 0.561005 102.665 0.509003 102.453 0.509003C102.203 0.509003 102.013 0.561005 101.857 0.688019C101.677 0.825012 101.575 0.994019 101.587 1.216C101.587 1.5 101.735 1.707 102.018 1.88702C102.203 1.996 102.433 2.108 102.677 2.23602C103.232 2.492 103.586 2.72101 103.768 2.93402C103.859 3.06201 103.94 3.21002 104.001 3.38303C104.062 3.55103 104.077 3.70602 104.077 3.88202C104.077 4.41101 103.859 4.84601 103.457 5.198C103.077 5.50601 102.595 5.66202 101.986 5.66202C101.799 5.66202 101.587 5.63202 101.37 5.608C101.194 5.561 100.998 5.53101 100.845 5.45001L100.543 5.31702C100.617 5.09601 100.669 4.94202 100.695 4.83801C100.727 4.71902 100.748 4.56 100.771 4.34H100.982Z" fill="#E5CE90"/>
<path d="M108.721 2.69162C109.445 2.68362 109.809 2.29361 109.809 1.52963C109.803 0.920624 109.505 0.634613 108.911 0.627625L108.628 0.638611L108.588 1.07462L108.573 1.67563L108.565 2.33862L108.573 2.67761L108.721 2.69162ZM108.663 0.103607L109.379 0.0936279C110.027 0.103607 110.494 0.244629 110.769 0.502625C110.893 0.611633 110.981 0.730621 111.046 0.87561C111.137 1.08661 111.164 1.29962 111.164 1.53864C111.164 2.64261 110.43 3.19962 108.957 3.19962L108.573 3.18863V3.57562L108.58 4.50162L108.616 5.19562L108.631 5.55563L107.989 5.54562L107.276 5.55563L107.295 5.22162L107.311 4.58163L107.343 3.56464V2.30563L107.336 1.33963C107.336 0.949616 107.311 0.643616 107.307 0.404633L107.28 0.0936279L107.944 0.119629L108.663 0.103607Z" fill="#E5CE90"/>
<path d="M114.107 4.44742L114.117 3.44644L114.107 1.99643V1.14743L114.084 0.465424L114.057 0.0544434L114.76 0.103424C114.929 0.103424 115.194 0.119446 115.582 0.119446C116.143 0.119446 116.55 0.103424 116.796 0.0944214L117.28 0.0544434L117.254 0.404419L117.28 0.771423L116.773 0.742432L115.788 0.716431L115.337 0.707428V2.43445L115.836 2.44043C116.143 2.44043 116.437 2.43445 116.745 2.41342L117.218 2.37744L117.199 2.73743L117.218 3.10144L116.717 3.06143C116.446 3.04544 116.146 3.03745 115.827 3.02744L115.337 3.03745V4.95044L115.797 4.96243C116.07 4.96243 116.375 4.95044 116.704 4.92743L117.28 4.88742L117.254 5.25043L117.28 5.60742L116.737 5.57544L115.776 5.54645H114.76L114.057 5.60742L114.084 5.20544C114.107 4.99344 114.107 4.74045 114.107 4.44742Z" fill="#E5CE90"/>
<path d="M124.382 0.911224C124.08 0.644226 123.715 0.509247 123.248 0.509247C122.642 0.509247 122.155 0.754242 121.788 1.24124C121.484 1.65625 121.348 2.17523 121.348 2.80423C121.348 3.23825 121.409 3.65225 121.569 4.03024C121.71 4.38525 121.942 4.65924 122.256 4.85425C122.573 5.05923 122.919 5.15024 123.307 5.15424C123.782 5.15424 124.199 5.02924 124.593 4.74323L124.835 4.55923L124.948 4.61224L124.835 4.98724L124.755 5.30725L124.557 5.40225C124.153 5.56125 123.669 5.65524 123.108 5.66223C122.589 5.66223 122.099 5.56125 121.641 5.40225C121.303 5.27124 120.986 5.08725 120.72 4.83823C120.466 4.59723 120.291 4.35123 120.167 4.07623C120.023 3.74124 119.97 3.35522 119.97 2.91824C119.97 1.97925 120.275 1.26224 120.908 0.754242C121.517 0.255249 122.303 0.000244141 123.27 0.000244141C123.772 0.000244141 124.221 0.0832519 124.645 0.218231L124.962 0.332245L124.85 0.727234L124.734 1.21823H124.673C124.557 1.09625 124.452 0.994232 124.382 0.911224Z" fill="#E5CE90"/>
<path d="M127.785 4.35175L127.813 2.79977L127.801 1.41876C127.801 1.00775 127.801 0.686768 127.768 0.430756L127.747 0.09375L128.423 0.119751L129.1 0.09375L129.072 0.430756C129.051 0.611755 129.044 0.949768 129.044 1.43777L129.034 2.81577V4.38477C129.038 4.70776 129.044 4.98175 129.067 5.21976L129.1 5.55576L128.437 5.54575L127.747 5.55576L127.768 5.16177L127.785 4.35175Z" fill="#E5CE90"/>
<path d="M133.814 3.41718C133.974 3.42816 134.143 3.44116 134.317 3.44116C134.478 3.44116 134.61 3.44116 134.744 3.42816L135.014 3.39316L134.882 3.08118L134.465 2.10815L134.281 1.65518L134.078 2.10815L133.666 3.08118L133.532 3.39316L133.814 3.41718ZM133.666 1.66415L134.091 0.654175L134.281 0.113159L134.572 0.137177L134.946 0.113159L135.153 0.654175L135.54 1.64517C136.048 2.89816 136.534 4.00916 137.019 4.98517L137.333 5.57516L136.524 5.56418L135.826 5.57516L135.65 5.04617L135.393 4.35815L135.273 4.00916L134.822 3.97116C134.68 3.96518 134.484 3.94818 134.255 3.94818C134.019 3.94818 133.846 3.94818 133.704 3.97116L133.273 4.00916L133.132 4.35217C133.058 4.56116 132.98 4.79218 132.901 5.02316L132.727 5.57516L132.305 5.56418L131.845 5.57516L132.15 5.00717C132.627 4.02518 133.132 2.92517 133.666 1.66415Z" fill="#E5CE90"/>
<path d="M140.07 4.34967V1.1727C140.07 0.887695 140.063 0.660675 140.047 0.454681L140.006 0.0706787L140.701 0.0926819L141.359 0.0706787L141.333 0.454681C141.317 0.676697 141.304 0.924683 141.296 1.19269V5.01669L141.996 5.00769C142.356 5.00769 142.635 5.0047 142.84 4.98068L143.269 4.9567L143.258 5.26868L143.269 5.5817L142.677 5.53168C142.408 5.5217 141.984 5.5217 141.376 5.5217H140.626L140.006 5.5817L140.047 5.20468C140.063 4.9617 140.063 4.68167 140.07 4.34967Z" fill="#E5CE90"/>
<path d="M146.162 4.3761L146.171 2.8251L146.162 1.4451C146.162 1.0321 146.162 0.709106 146.138 0.455109L146.109 0.120117L146.794 0.14212L147.479 0.120117L147.439 0.455109C147.416 0.637115 147.415 0.974121 147.415 1.4631L147.393 2.84012V4.40912C147.406 4.73312 147.415 5.00812 147.432 5.2431L147.479 5.58112L146.794 5.5701L146.109 5.58112L146.138 5.1871L146.162 4.3761Z" fill="#E5CE90"/>
<path d="M150.279 0.130005L150.937 0.157013C151.523 0.179016 152.026 0.194031 152.426 0.194031C152.842 0.194031 153.328 0.179016 153.905 0.157013L154.561 0.130005L154.547 0.444031L154.561 0.761017L154.032 0.728027L153.368 0.70401H153.03V2.52603L153.048 4.06302L153.058 5.10602L153.092 5.63101L152.426 5.62003L151.743 5.63101L151.766 5.10602L151.802 4.06302V2.52603V1.03003V0.70401H151.48L150.801 0.728027L150.279 0.761017L150.298 0.444031L150.279 0.130005Z" fill="#E5CE90"/>
<path d="M158.487 0.193481L158.634 0.578491C158.72 0.800507 158.833 1.04651 158.971 1.3165C159.076 1.5535 159.219 1.83749 159.393 2.13449L159.717 2.74051L160.035 2.12851C160.204 1.80051 160.344 1.53351 160.455 1.27649C160.54 1.09351 160.645 0.853485 160.745 0.578491L160.902 0.193481L161.35 0.216492L161.797 0.193481L161.532 0.594482C161.458 0.686493 161.337 0.9245 161.135 1.29651L160.384 2.69751L160.035 3.39249L159.987 3.80649C159.977 3.93451 159.977 4.1275 159.977 4.38449C159.977 4.7435 159.977 5.0145 159.999 5.1955L160.035 5.65649L159.377 5.64551L158.694 5.65649L158.72 5.18649L158.75 4.51651V3.39249L158.378 2.75049L157.607 1.34048C157.478 1.13348 157.331 0.887482 157.142 0.610504L156.873 0.193481L157.741 0.216492L158.487 0.193481Z" fill="#E5CE90"/>
<path d="M167.429 0.0548096L168.096 0.0828247C168.685 0.103821 169.174 0.118835 169.574 0.118835C170.001 0.118835 170.487 0.103821 171.067 0.0828247L171.718 0.0548096L171.689 0.369812L171.718 0.686829L171.184 0.654816L170.514 0.627838H170.177V2.45084L170.203 3.98782L170.22 5.03183L170.249 5.55582L169.57 5.54584L168.888 5.55582L168.923 5.03183L168.945 3.98782L168.952 2.45084L168.971 0.956818V0.627838H168.628L167.969 0.654816L167.429 0.686829L167.457 0.369812L167.429 0.0548096Z" fill="#E5CE90"/>
<path d="M174.402 4.44742L174.414 3.44644L174.402 1.99643V1.14743L174.375 0.465424L174.34 0.0544434L175.044 0.103424C175.205 0.103424 175.493 0.119446 175.866 0.119446C176.435 0.119446 176.835 0.103424 177.098 0.0944214L177.572 0.0544434L177.558 0.404419L177.572 0.771423L177.072 0.742432L176.082 0.716431L175.636 0.707428V2.43445L176.12 2.44043C176.435 2.44043 176.745 2.43445 177.044 2.41342L177.512 2.37744L177.484 2.73743L177.512 3.10144L177.014 3.06143C176.745 3.04544 176.452 3.03745 176.109 3.02744L175.636 3.03745V4.95044L176.099 4.96243C176.374 4.96243 176.67 4.95044 177.002 4.92743L177.572 4.88742L177.558 5.25043L177.572 5.60742L177.034 5.57544L176.066 5.54645H175.044L174.34 5.60742L174.375 5.20544C174.387 4.99344 174.402 4.74045 174.402 4.44742Z" fill="#E5CE90"/>
<path d="M181.902 3.37421C182.06 3.38321 182.215 3.39719 182.405 3.39719C182.561 3.39719 182.694 3.39719 182.82 3.38321L183.095 3.35019L182.966 3.0372L182.556 2.06421L182.359 1.61221L182.157 2.06421L181.754 3.0372L181.598 3.35019L181.902 3.37421ZM181.754 1.62119L182.164 0.610199L182.362 0.0701904L182.665 0.0932007L183.023 0.0701904L183.242 0.610199L183.626 1.60019C184.124 2.85419 184.623 3.96619 185.108 4.94119L185.414 5.53119L184.606 5.52121L183.9 5.53119L183.729 5.00519L183.472 4.31519L183.358 3.96619L182.904 3.92722C182.774 3.9202 182.577 3.9032 182.343 3.9032C182.109 3.9032 181.919 3.9032 181.785 3.92722L181.355 3.96619L181.225 4.30621C181.137 4.5192 181.065 4.74921 180.982 4.98019L180.813 5.53119L180.389 5.52121L179.923 5.53119L180.235 4.96219C180.717 3.98322 181.211 2.8812 181.754 1.62119Z" fill="#E5CE90"/>
</svg>
